HIERARCHY
ROOT Joint1
{
	OFFSET 0.000000 0.000000 0.000000
	CHANNELS 6 Xposition Yposition Zposition Xrotation Yrotation Zrotation
	JOINT Joint2
	{
		OFFSET -0.000000 0.000000 1.456275
		CHANNELS 6 Xposition Yposition Zposition Xrotation Yrotation Zrotation
		JOINT Joint3
		{
			OFFSET -0.000000 0.000002 1.471446
			CHANNELS 6 Xposition Yposition Zposition Xrotation Yrotation Zrotation
			JOINT Joint4
			{
				OFFSET 0.625745 0.000000 0.917755
				CHANNELS 6 Xposition Yposition Zposition Xrotation Yrotation Zrotation
				JOINT Joint5
				{
					OFFSET -0.629534 0.000001 0.940221
					CHANNELS 6 Xposition Yposition Zposition Xrotation Yrotation Zrotation
					JOINT Joint6
					{
						OFFSET -0.000001 0.113772 1.960660
						CHANNELS 6 Xposition Yposition Zposition Xrotation Yrotation Zrotation
						JOINT Joint7
						{
							OFFSET -0.669733 -0.113771 0.388340
							CHANNELS 6 Xposition Yposition Zposition Xrotation Yrotation Zrotation
							End Site
							{
								OFFSET 0.005509 0.005509 0.438980
							}
						}
					}
				}
			}
		}
	}
}
MOTION
Frames: 29
Frame Time: 0.041667
0.000000 0.000000 0.000000 -0.000000 1.019410 100.126523 -0.000000 0.000000 1.456275 0.000050 -90.944638 -0.000023 -0.000001 0.000002 1.471446 -0.000005 -1.133465 -77.872353 0.625744 0.000000 0.917755 0.000001 45.403744 0.000001 -0.629534 0.000001 0.940221 -0.000000 1.709739 150.769350 -0.000001 0.113772 1.960660 -88.303882 162.717974 0.000002 -0.669734 -0.113771 0.388340 -0.282442 3.474132 110.417726 
0.000000 0.000000 0.000000 -0.000000 1.019410 100.072817 -0.000000 0.000000 1.456275 0.000006 -90.919981 -0.000006 -0.000000 0.000002 1.471446 -0.000004 -1.133465 -77.830593 0.625745 0.000000 0.917755 0.000000 45.451818 0.000000 -0.629533 0.000001 0.940221 -0.000002 1.709735 150.688453 -0.000001 0.113772 1.960661 -88.303882 162.678946 0.000001 -0.669734 -0.113772 0.388340 -0.282654 3.474229 110.430895 
0.000000 0.000000 0.000000 -0.000000 1.019410 99.975098 -0.000000 0.000000 1.456275 0.000039 -90.875127 -0.000009 -0.000000 0.000002 1.471446 -0.000005 -1.133465 -77.754628 0.625745 0.000000 0.917755 -0.000000 45.539272 0.000001 -0.629534 0.000001 0.940221 -0.000002 1.709735 150.541317 -0.000001 0.113772 1.960660 -88.303882 162.607953 -0.000000 -0.669733 -0.113771 0.388341 -0.283041 3.474405 110.454855 
0.000000 0.000000 0.000000 -0.000000 1.019410 99.826678 -0.000000 0.000000 1.456275 -0.000003 -90.806989 0.000065 -0.000000 0.000002 1.471446 -0.000003 -1.133465 -77.639238 0.625745 0.000000 0.917755 0.000000 45.672106 -0.000000 -0.629534 0.000001 0.940221 -0.000000 1.709737 150.317806 -0.000001 0.113772 1.960660 -88.303882 162.500118 -0.000000 -0.669733 -0.113771 0.388340 -0.283629 3.474672 110.491233 
0.000000 0.000000 0.000000 -0.000000 1.019410 99.620843 -0.000000 0.000000 1.456275 -0.000049 -90.712507 0.000008 -0.000000 0.000002 1.471446 -0.000002 -1.133465 -77.479214 0.625744 0.000001 0.917755 0.000000 45.856333 0.000000 -0.629533 0.000001 0.940221 -0.000002 1.709734 150.007838 -0.000001 0.113772 1.960661 -88.303882 162.350591 0.000001 -0.669733 -0.113771 0.388340 -0.284445 3.475045 110.541708 
0.000000 0.000000 0.000000 -0.000000 1.019410 99.350887 -0.000000 0.000000 1.456275 0.000047 -90.588594 -0.000044 -0.000000 0.000002 1.471446 -0.000003 -1.133465 -77.269356 0.625745 0.000000 0.917755 0.000001 46.097944 0.000002 -0.629534 0.000001 0.940220 -0.000002 1.709733 149.601333 -0.000001 0.113772 1.960661 -88.303882 162.154483 0.000001 -0.669734 -0.113771 0.388341 -0.285515 3.475529 110.607913 
0.000000 0.000000 0.000000 -0.000000 1.019410 99.010101 -0.000000 -0.000000 1.456275 0.000074 -90.432162 -0.000049 -0.000000 0.000002 1.471446 -0.000004 -1.133465 -77.004427 0.625745 0.000000 0.917755 -0.000002 46.402929 0.000001 -0.629533 0.000001 0.940221 -0.000001 1.709736 149.088167 -0.000000 0.113772 1.960660 -88.303882 161.906916 -0.000004 -0.669733 -0.113771 0.388341 -0.286869 3.476140 110.691460 
0.000000 0.000000 0.000000 -0.000000 1.019410 98.591793 -0.000000 0.000000 1.456275 0.000008 -90.240145 -0.000052 -0.000000 0.000002 1.471446 -0.000004 -1.133465 -76.679228 0.625745 0.000000 0.917755 -0.000002 46.777305 0.000001 -0.629534 0.000001 0.940221 -0.000000 1.709739 148.458246 -0.000001 0.113772 1.960661 -88.303882 161.603027 0.000002 -0.669733 -0.113771 0.388340 -0.288529 3.476888 110.794022 
0.000000 0.000000 0.000000 -0.000000 1.019410 98.089241 -0.000000 0.000000 1.456275 -0.002373 -90.009462 0.001415 -0.000000 0.000002 1.471445 -0.000005 -1.133465 -76.288541 0.625745 0.000000 0.917755 -0.000002 47.227073 0.000003 -0.629533 0.000001 0.940220 -0.000002 1.709741 147.701502 -0.000001 0.113772 1.960660 -88.303882 161.237953 -0.000001 -0.669733 -0.113771 0.388340 -0.290526 3.477781 110.917238 
0.000000 0.000000 0.000000 -0.000000 1.019410 97.495759 -0.000000 0.000000 1.456275 0.000075 -89.737040 -0.000250 -0.000001 0.000002 1.471446 -0.000004 -1.133465 -75.827155 0.625744 0.000000 0.917755 -0.000002 47.758230 -0.000000 -0.629534 0.000001 0.940221 -0.000001 1.709736 146.807785 -0.000001 0.113772 1.960660 -88.303882 160.806805 0.000002 -0.669733 -0.113771 0.388340 -0.292888 3.478832 111.062749 
0.000000 0.000000 0.000000 -0.000000 1.019410 96.804633 -0.000000 -0.000000 1.456275 0.000017 -89.419792 -0.000005 -0.000000 0.000002 1.471446 -0.000004 -1.133465 -75.289865 0.625744 0.000000 0.917755 0.000000 48.376772 0.000000 -0.629533 0.000001 0.940220 -0.000001 1.709738 145.767042 -0.000001 0.113772 1.960660 -88.303882 160.304717 0.000003 -0.669733 -0.113771 0.388340 -0.295641 3.480047 111.232206 
0.000000 0.000000 0.000000 -0.000000 1.019410 96.017543 -0.000000 0.000000 1.456275 0.000028 -89.058495 0.000024 -0.000000 0.000002 1.471446 -0.000004 -1.133465 -74.677962 0.625745 0.000000 0.917755 0.000000 49.081203 0.000001 -0.629534 0.000001 0.940221 -0.000001 1.709733 144.581786 -0.000001 0.113772 1.960660 -88.303882 159.732921 -0.000001 -0.669733 -0.113771 0.388340 -0.298780 3.481419 111.425199 
0.000000 0.000000 0.000000 -0.000000 1.019410 95.169711 -0.000000 0.000000 1.456275 0.000011 -88.669318 0.000011 -0.000000 0.000002 1.471446 -0.000004 -1.133465 -74.018856 0.625744 0.000000 0.917755 -0.000000 49.839979 0.000002 -0.629534 0.000001 0.940221 0.000001 1.709735 143.305087 -0.000001 0.113772 1.960660 -88.303882 159.117002 -0.000001 -0.669733 -0.113771 0.388340 -0.302168 3.482887 111.633076 
0.000000 0.000000 0.000000 -0.000000 1.019410 94.304763 -0.000000 0.000000 1.456275 -0.000017 -88.272286 0.000002 -0.000000 0.000002 1.471446 -0.000004 -1.133465 -73.346437 0.625745 0.000000 0.917755 0.000001 50.614085 0.000002 -0.629533 0.000001 0.940221 0.000000 1.709740 142.002597 -0.000001 0.113772 1.960661 -88.303882 158.488638 0.000001 -0.669733 -0.113771 0.388340 -0.305628 3.484372 111.845147 
0.000000 0.000000 0.000000 -0.000000 1.019410 93.466317 -0.000000 -0.000000 1.456275 0.000005 -87.887411 -0.000005 -0.000000 0.000002 1.471446 -0.000004 -1.133465 -72.694619 0.625745 0.000000 0.917755 0.000002 51.364484 -0.000001 -0.629534 0.000001 0.940221 0.000001 1.709740 140.740009 -0.000001 0.113772 1.960661 -88.303882 157.879536 0.000002 -0.669732 -0.113771 0.388340 -0.308989 3.485799 112.050735 
0.000000 0.000000 0.000000 -0.000000 1.019410 92.680449 -0.000000 0.000000 1.456275 0.000002 -87.526682 -0.000001 -0.000000 0.000002 1.471446 -0.000003 -1.133465 -72.083679 0.625745 0.000000 0.917755 -0.000000 52.067816 0.000002 -0.629533 0.000001 0.940220 -0.000000 1.709739 139.556597 -0.000001 0.113772 1.960660 -88.303882 157.308628 0.000002 -0.669733 -0.113771 0.388340 -0.312142 3.487127 112.243429 
0.000000 0.000000 0.000000 -0.000000 1.019410 91.903146 -0.000000 0.000000 1.456275 -0.000001 -87.169873 -0.000001 -0.000000 0.000002 1.471446 -0.000004 -1.133465 -71.479384 0.625745 0.000000 0.917755 -0.000003 52.763488 0.000000 -0.629534 0.000001 0.940221 -0.000002 1.709737 138.386094 -0.000001 0.113772 1.960661 -88.303882 156.743935 0.000002 -0.669733 -0.113771 0.388340 -0.315265 3.488425 112.434005 
0.000000 0.000000 0.000000 -0.000000 1.019410 91.072841 -0.000000 0.000000 1.456275 -0.000005 -86.788734 -0.000000 -0.000000 0.000002 1.471446 -0.000003 -1.133465 -70.833897 0.625745 0.000000 0.917755 0.000002 53.506595 -0.000000 -0.629533 0.000001 0.940221 0.000000 1.709738 137.135773 -0.000001 0.113772 1.960661 -88.303875 156.140761 -0.000002 -0.669733 -0.113772 0.388340 -0.318607 3.489806 112.637592 
0.000000 0.000000 0.000000 -0.000000 1.019410 90.128007 -0.000000 0.000000 1.456275 0.000000 -86.355031 -0.000000 -0.000000 0.000002 1.471446 -0.000004 -1.133465 -70.099379 0.625745 0.000000 0.917755 -0.000001 54.352200 0.000002 -0.629533 0.000001 0.940221 -0.000004 1.709733 135.712990 -0.000001 0.113772 1.960660 -88.303875 155.454368 -0.000001 -0.669733 -0.113771 0.388340 -0.322417 3.491363 112.869259 
0.000000 0.000000 0.000000 -0.000000 1.019410 89.036673 -0.000000 0.000000 1.456275 0.000000 -85.854078 -0.000001 -0.000000 0.000002 1.471446 -0.000004 -1.133465 -69.250960 0.625745 0.000000 0.917755 -0.000005 55.328924 0.000001 -0.629533 0.000001 0.940221 -0.000003 1.709739 134.069606 -0.000001 0.113772 1.960661 -88.303882 154.661547 0.000004 -0.669732 -0.113770 0.388341 -0.326824 3.493140 113.136859 
0.000000 0.000000 0.000000 -0.000000 1.019410 87.885239 -0.000000 -0.000000 1.456275 -0.000000 -85.325537 -0.000002 -0.000000 0.000002 1.471446 -0.000003 -1.133465 -68.355823 0.625745 0.000000 0.917755 -0.000002 56.359429 0.000001 -0.629534 0.000001 0.940221 -0.000001 1.709739 132.335707 -0.000001 0.113772 1.960660 -88.303882 153.825067 0.000004 -0.669733 -0.113771 0.388340 -0.331480 3.494990 113.419178 
0.000000 0.000000 0.000000 -0.000000 1.019410 86.789691 -0.000000 0.000000 1.456275 -0.000002 -84.822651 -0.000003 -0.000000 0.000002 1.471446 -0.000003 -1.133465 -67.504132 0.625744 0.000000 0.917755 -0.000001 57.339916 0.000003 -0.629534 0.000001 0.940221 -0.000001 1.709736 130.685971 -0.000001 0.113772 1.960661 -88.303882 153.029186 0.000004 -0.669733 -0.113771 0.388340 -0.335923 3.496733 113.687795 
0.000000 0.000000 0.000000 -0.000000 1.019410 85.808725 -0.000000 -0.000000 1.456275 -0.000002 -84.372364 0.000003 -0.000001 0.000002 1.471446 -0.000004 -1.133465 -66.741528 0.625744 0.000000 0.917755 -0.000006 58.217855 0.000002 -0.629534 0.000001 0.940221 -0.000001 1.709737 129.208779 -0.000001 0.113772 1.960660 -88.303882 152.316552 -0.000002 -0.669733 -0.113771 0.388340 -0.339907 3.498277 113.928327 
0.000000 0.000000 0.000000 -0.000000 1.019410 84.771875 -0.000000 0.000000 1.456275 0.000006 -83.896423 0.000004 -0.000000 0.000002 1.471446 -0.000004 -1.133465 -65.935463 0.625745 0.000000 0.917755 -0.000000 59.145811 0.000004 -0.629534 0.000001 0.940221 -0.000002 1.709736 127.647438 -0.000001 0.113772 1.960661 -88.303882 151.563318 -0.000002 -0.669734 -0.113771 0.388340 -0.344122 3.499887 114.182547 
0.000000 0.000000 0.000000 -0.000000 1.019410 83.451381 -0.000000 0.000000 1.456275 0.000001 -83.290277 0.000002 -0.000000 0.000002 1.471446 -0.000003 -1.133465 -64.908886 0.625745 0.000000 0.917755 -0.000005 60.327632 0.000005 -0.629534 0.000001 0.940221 -0.000001 1.709737 125.658938 -0.000001 0.113772 1.960660 -88.303875 150.604018 -0.000004 -0.669733 -0.113771 0.388340 -0.349505 3.501912 114.506332 
0.000000 0.000000 0.000000 -0.000000 1.019410 81.752556 -0.000000 0.000000 1.456275 -0.000002 -82.510475 0.000004 -0.000000 0.000002 1.471446 -0.000003 -1.133465 -63.588194 0.625745 0.000000 0.917755 -0.000004 61.848046 -0.000000 -0.629534 0.000001 0.940221 -0.000001 1.709740 123.100745 -0.000001 0.113772 1.960661 -88.303875 149.369871 0.000001 -0.669733 -0.113771 0.388340 -0.356448 3.504475 114.922892 
0.000000 0.000000 0.000000 -0.000000 1.019410 80.113065 -0.000000 0.000000 1.456275 0.000004 -81.757897 -0.000005 -0.000001 0.000002 1.471446 -0.000003 -1.133465 -62.313646 0.625745 0.000000 0.917755 -0.000002 63.315355 0.000003 -0.629534 0.000001 0.940221 -0.000001 1.709738 120.631919 -0.000001 0.113772 1.960661 -88.303882 148.178837 -0.000001 -0.669733 -0.113771 0.388341 -0.363162 3.506894 115.324875 
0.000000 0.000000 0.000000 -0.000000 1.019410 78.937637 -0.000000 0.000000 1.456275 -0.000002 -81.218346 -0.000005 -0.000000 0.000002 1.471446 -0.000002 -1.133466 -61.399856 0.625745 0.000000 0.917755 -0.000000 64.367327 -0.000001 -0.629534 0.000001 0.940221 -0.000005 1.709734 118.861903 -0.000000 0.113772 1.960660 -88.303882 147.324926 0.000000 -0.669733 -0.113771 0.388341 -0.367987 3.508605 115.613082 
0.000000 0.000000 0.000000 -0.000000 1.019410 77.966725 -0.000000 0.000000 1.456275 -0.000004 -80.772670 -0.000005 -0.000001 0.000002 1.471446 -0.000002 -1.133464 -60.645058 0.625745 0.000000 0.917755 -0.000001 65.236271 0.000000 -0.629534 0.000001 0.940221 -0.000003 1.709735 117.399860 -0.000001 0.113773 1.960660 -88.303875 146.619600 0.000002 -0.669733 -0.113771 0.388340 -0.371977 3.509997 115.851155 
